Coordinates
version=1
nRows=8
nColumns=40
inDegrees=yes

Units are S.I. units (second, meters, Newtons, ...)
If the header above contains a line with 'inDegrees', this indicates whether rotational values are in degrees (yes) or radians (no).

endheader
time	pelvis_tilt	pelvis_list	pelvis_rotation	pelvis_tx	pelvis_ty	pelvis_tz	hip_flexion_r	hip_adduction_r	hip_rotation_r	knee_angle_r	knee_angle_r_beta	ankle_angle_r	subtalar_angle_r	mtp_angle_r	hip_flexion_l	hip_adduction_l	hip_rotation_l	knee_angle_l	knee_angle_l_beta	ankle_angle_l	subtalar_angle_l	mtp_angle_l	lumbar_extension	lumbar_bending	lumbar_rotation	arm_flex_r	arm_add_r	arm_rot_r	elbow_flex_r	pro_sup_r	wrist_flex_r	wrist_dev_r	arm_flex_l	arm_add_l	arm_rot_l	elbow_flex_l	pro_sup_l	wrist_flex_l	wrist_dev_l
      5.15000000000000035527	     15.18158202193501615795	      0.71407134325109355988	   -174.01628587550356996871	      0.39158258488938146868	      0.74096142277680288046	     -0.98404709558864744690	     41.69609163583900368621	    -44.04189914232227209823	    -32.96109697492342860414	     33.74885202231242686821	      0.58902858655769863017	    -15.55973591127100874587	      0.00000000000000000000	      0.00000000000000000000	     49.51217738767977749603	    -34.94475762090271331317	    -22.90777993131892031897	     29.30708561172202664125	      0.51150513808840580854	    -18.32007670170706248314	      0.00000000000000000000	      0.00000000000000000000	    -54.48209515157964233367	      9.78801028700861230902	      0.46192652437391995557	     59.92055533796307287275	     -7.78942602624933044808	     30.47513135997287037071	      1.45633916825657228067	     70.14495963120991461892	      0.00000000000000000000	      0.00000000000000000000	     51.07432015936786484644	     -0.16989159786961008369	     23.62076786986999010765	      1.22019576459516487787	      4.90893166051601248512	      0.00000000000000000000	      0.00000000000000000000
      5.15500000000000024869	     15.43599473508781549924	      0.73800198620248025350	   -174.12932300272555607989	      0.39158657959057158182	      0.74187390220848969946	     -0.98373910241380013719	     41.75707673444328804635	    -43.77664962926462521864	    -32.96506472621578609505	     33.21299347908485799508	      0.57967609065343717045	    -15.93615160965781463176	      0.00000000000000000000	      0.00000000000000000000	     49.47999895454533003658	    -34.88189836833598178600	    -23.09890090782550942095	     28.93652195291668505206	      0.50503758215401572951	    -18.49290131032558548441	      0.00000000000000000000	      0.00000000000000000000	    -54.08846877510178785542	      9.74826118130750707280	      0.47483040098050749434	     59.84422797996325016356	     -7.87785888781845411444	     29.61328211882116789866	      1.45095254695696151970	     72.30814120312990667117	      0.00000000000000000000	      0.00000000000000000000	     50.87313067291314894192	     -0.17255383497105894475	     23.87217621742300721621	      1.21639626496265673694	      4.93018672994687889855	      0.00000000000000000000	      0.00000000000000000000
      5.16000000000000014211	     15.71146418546778811276	      0.75740412044632765554	   -174.15569108111611740242	      0.39169023148088699671	      0.74274438436757628246	     -0.98322389052203984505	     41.80918964683628757939	    -43.59259861507322142415	    -33.03575835740022625941	     32.72819224492152301309	      0.57121471289955505490	    -16.23991284304689841633	      0.00000000000000000000	      0.00000000000000000000	     49.48218240086766428476	    -34.70308475502474720997	    -23.17757120250451663424	     28.49731769162180583521	      0.49737202170563060699	    -18.64304612782187930975	      0.00000000000000000000	      0.00000000000000000000	    -53.65670981325349941926	      9.83482013160394075157	      0.39583313088999522167	     59.74118785072315773732	     -7.94640252378962053115	     29.67527853967390782941	      1.43593685731055131782	     74.61484895372436199068	      0.00000000000000000000	      0.00000000000000000000	     50.46081184487275095307	     -0.24365663147629773588	     25.15852981104199770357	      1.21441119891264959207	      5.22616991450765233651	      0.00000000000000000000	      0.00000000000000000000
      5.16500000000000003553	     15.82217911420125844302	      0.88923156672852987636	   -174.07733809782445177916	      0.39160403743957111766	      0.74386011426771236899	     -0.98254046812146933476	     41.45515623582213038389	    -43.36671951340677111375	    -33.43131629756653921959	     32.15834099806392032406	      0.56126893239529485058	    -16.50551552988448023029	      0.00000000000000000000	      0.00000000000000000000	     49.47834901772344551318	    -34.57887338447894620685	    -23.10482823070722702141	     28.15480731958366078516	      0.49139408799133427186	    -18.84648161484597395088	      0.00000000000000000000	      0.00000000000000000000	    -53.38440997572369894897	      9.99475242730038537786	      0.42312120594784680128	     59.58071494203521467625	     -8.06421453857015357869	     29.46402136164198637402	      1.45204044721834879539	     75.42550536576369779596	      0.00000000000000000000	      0.00000000000000000000	     50.33164818220832614770	     -0.17795931340462059489	     25.26329876034393606687	      1.21048843607648382026	      5.13470812374537555201	      0.00000000000000000000	      0.00000000000000000000
      5.16999999999999992895	     15.99734959833754999181	      0.81189769139542811160	   -174.11192908608421703320	      0.39148402389480163599	      0.74492595218329582529	     -0.98191497457395915394	     41.41949503958011291616	    -43.23736573922960246819	    -33.39907204961938447241	     31.62368685619997421554	      0.55193745726034415533	    -16.68891965298417900954	      0.00000000000000000000	      0.00000000000000000000	     49.31335978816361631516	    -34.38149290330407836791	    -23.38983096596272659440	     27.78718173898538168487	      0.48497781119533850402	    -18.94272373455228830608	      0.00000000000000000000	      0.00000000000000000000	    -53.03924977638093452015	     10.00716587787089295603	      0.16152526376735984459	     59.37568453440400162435	     -7.78769869895493194178	     30.00139881300977151568	      1.46358122577647198348	     71.91743375183374098469	      0.00000000000000000000	      0.00000000000000000000	     50.40562203413408326469	     -0.29438774699266834212	     23.58579336062105369365	      1.23017016697999337360	      5.23272879379883804063	      0.00000000000000000000	      0.00000000000000000000
      5.17499999999999982236	     16.07353488950144182468	      0.94604406014407793624	   -174.09357113603599032103	      0.39138157923258293236	      0.74599715379457676168	     -0.98136683293058313282	     41.08239450367324252511	    -42.94416946134279555736	    -33.63530472813611282845	     31.06044045915586337969	      0.54210695313192913680	    -16.82549564877719205924	      0.00000000000000000000	      0.00000000000000000000	     49.27707365306123676874	    -34.35802460340985930998	    -23.45551104842898482161	     27.51431129103619355192	      0.48021532344723338870	    -19.09478003749569552383	      0.00000000000000000000	      0.00000000000000000000	    -52.79185800274829176715	     10.09865484041640293356	      0.18012703102749602624	     59.11127012713726003312	     -7.78033694450655222141	     30.55593659447388077410	      1.50532387670998146767	     69.76876377091525682772	      0.00000000000000000000	      0.00000000000000000000	     50.38087323378279336339	     -0.29632829932856846744	     22.85821681835089691504	      1.21379877032815852722	      5.54160202531644952018	      0.00000000000000000000	      0.00000000000000000000
      5.17999999999999971578	     16.32766365459688273631	      0.95893381888555395687	   -174.11264487710306525514	      0.39141778205810101587	      0.74674867654770071823	     -0.98094875311789575534	     41.13129449457711928062	    -42.78787833000341578327	    -33.75151358567799775301	     30.62167135579266030732	      0.53444898762221793032	    -17.07782374768016708799	      0.00000000000000000000	      0.00000000000000000000	     49.29334902954025210420	    -34.19723821270253694138	    -23.52300181641007981170	     27.12806494869015594418	      0.47347405304950979099	    -19.27725875874383731912	      0.00000000000000000000	      0.00000000000000000000	    -52.33739874592369289985	     10.11321719318764067452	      0.14782992839105399407	     58.94258410608393461416	     -7.83356638735121446615	     29.77009842658911509261	      1.50725121406354789499	     70.22811002090129761655	      0.00000000000000000000	      0.00000000000000000000	     50.17587542288458735129	     -0.26622731173905372914	     23.36049593207295416164	      1.23775145087770277463	      5.08919163216313741316	      0.00000000000000000000	      0.00000000000000000000
      5.18499999999999960920	     16.43098745359987944425	      1.04126153031075352473	   -174.09289526124547364816	      0.39137776333244772564	      0.74769270741853643969	     -0.98052058896082583406	     40.88677575469706937383	    -42.55264165762458361542	    -33.97716079167354763513	     30.09231930416761002789	      0.52521005141917376235	    -17.27378657150704910350	      0.00000000000000000000	      0.00000000000000000000	     49.22742322260064185002	    -34.07789171379326376154	    -23.45945605693246349688	     26.75738524420925656955	      0.46700447173599851647	    -19.42158880400101139685	      0.00000000000000000000	      0.00000000000000000000	    -52.05192208226990402409	     10.19462720400545840960	      0.20665285963942089942	     58.85430220806806289602	     -8.11328861595916706051	     29.39707889644497385007	      1.48240553458924284591	     75.82085901003384265096	      0.00000000000000000000	      0.00000000000000000000	     49.80355007993988891712	     -0.21850748131213604264	     24.62647248033889724184	      1.21815742599479670538	      5.22945143796509981371	      0.00000000000000000000	      0.00000000000000000000
